# xmcd
#
# Track frame offsets:
#	150
#	19520
#	35621
#	53751
#	72433
#	90366
#	104592
#	121636
#	140613
#	166492
#	188421
#	212541
#	229014
#	243601
#
# Disc length: 3527 seconds
#
# Revision: 0
# Processed by: cddbd v1.5.2PL0 Copyright (c) Steve Scherf et al.
# Submitted via: EasyCDDAExtractor 12.1.0.1
#
DISCID=b50dc50e
DTITLE=Phil Keaggy - All At Once
DYEAR=1900
DGENRE=
TTITLE0=Mercy
TTITLE1=Undertow
TTITLE2=Call the Doctor
TTITLE3=All at once
TTITLE4=I love the way You love me
TTITLE5=La La La love You
TTITLE6=My guitar's in Love
TTITLE7=Stay Home baby
TTITLE8=Fearless Love
TTITLE9=Not be moved
TTITLE10=Ezekiel
TTITLE11=I prayed for you
TTITLE12=Breathe
TTITLE13=I must tell Jesus
EXTD=
EXTT0=
EXTT1=
EXTT2=
EXTT3=
EXTT4=
EXTT5=
EXTT6=
EXTT7=
EXTT8=
EXTT9=
EXTT10=
EXTT11=
EXTT12=
EXTT13=
PLAYORDER=
